# xmcd CD database file
# Copyright (C) 1997 Ti Kan
#
# Track frame offsets:
#  150
#  16623
#  35845
#  49280
#  66795
#  83503
#  92180
#  104088
#  122550
#  134920
#  156943
#  170693
#  189943
#  202498
#  217603
#  232423
#  249410
#
# Disc length: 3587 seconds
#
# Revision: 1
# Processed by: cddbd v1.4b41PL1 Copyright (c) Steve Scherf et al.
# Submitted via: CDWizzard Release:4.35
#
DISCID=fa0e0111
DTITLE=Al Caiola and His Orchestra - Italian Street Songs
DYEAR=1900
DGENRE=
TTITLE0=Two-Step Guaglione  Scapricciatello and Chella Lia and A Frangesa and M
TTITLE0=argarita
TTITLE1=Tango Chitarra Romana Strada Del Bosco and Villia
TTITLE2=Polka Gilda and Splendore
TTITLE3=Ballad Na Voce Na Chitarra and Vurria and La Paloma
TTITLE4=Ballad Al Di La and Angela Mia and O Sole Mio
TTITLE5=Waltz Celeste Aida and Carnevale Di Venezia
TTITLE6=Polka Reginella Campagnola and L'Argentina Baldoria
TTITLE7=Ballad Mala Femmena and Bella and Statte Vicico A Me
TTITLE8=Tarantella Funiculi-Funicula and Marianna and Luna Mezzo Marc
TTITLE9=Waltz Torno A Sorrento and Santa Lucia and Marie and Ciribiribin
TTITLE10=Muzurka Tra-Vegilia E Sonno and Gentile Pensiero and Genovetta and La 
TTITLE10=Napoletana
TTITLE11=Ballad and Beguie Dicitinciello Vuie and Ritorno A Me Volare
TTITLE12=Tarantella Tarantella Napoletana and Quadriglia Cosi Cosa
TTITLE13=Muzurka Ma Come Balli Bella Bimba and Oi Bella Se Voui Venire and It
TTITLE13=alian Muzurka and Delirio D'Amore and Ci
TTITLE14=Waltz Tesoro Mio and Vieni Sul Mar and La Donna E Mobile Mattinata +
TTITLE14=Mariniello
TTITLE15=Polka La Piccinina and Lina and Marina and A Santa Cecilia
TTITLE16=Waltz La Spagnola and Cielito Linda and Il Bacio and Speranze Perdute
EXTD=
EXTT0=
EXTT1=
EXTT2=
EXTT3=
EXTT4=
EXTT5=
EXTT6=
EXTT7=
EXTT8=
EXTT9=
EXTT10=
EXTT11=
EXTT12=
EXTT13=
EXTT14=
EXTT15=
EXTT16=
PLAYORDER=
